<svg xmlns="http://www.w3.org/2000/svg" width="215" height="45" viewBox="0 0 215 45"><g transform="translate(-245 -4184)"><g transform="translate(-118.879 4311.112)"><path d="M421.531-100.3a2.728,2.728,0,0,1-2.643-2.185l0-.013a10.629,10.629,0,0,0-1.552-4.048l-.011-.015a4.233,4.233,0,0,0-1.68-1.468l-.036-.018a3.265,3.265,0,0,0-1.267-.356c-.164,0-.339.007-.524.014-.222.008-.453.017-.692.017a2.7,2.7,0,0,1-2.663-2.462,2.661,2.661,0,0,1,2.154-2.881,6.058,6.058,0,0,1,1.327-.132c.154,0,.312.005.47.015a7.578,7.578,0,0,0,3.181-.794,2.727,2.727,0,0,0,1.394-2.743,5.221,5.221,0,0,0-.524-2.456,2.941,2.941,0,0,0-.983-.97,4.229,4.229,0,0,0-1.732-.48H409.37V-103a2.7,2.7,0,0,1-2.7,2.7,2.672,2.672,0,0,1-1.9-.8,2.673,2.673,0,0,1-.8-1.9V-123.97a2.7,2.7,0,0,1,2.7-2.7h9.08a8.584,8.584,0,0,1,2.091.281,8.555,8.555,0,0,1,4,2.2,8.149,8.149,0,0,1,1.854,2.851v0a11.044,11.044,0,0,1,.689,3.965,8.967,8.967,0,0,1-1.041,4.357,7.77,7.77,0,0,1-2.232,2.538c.182.209.359.428.533.659l.007.009a15.582,15.582,0,0,1,2.528,6.277l0,.012a2.749,2.749,0,0,1-.4,2,2.615,2.615,0,0,1-1.731,1.161l-.105.02h-.082l-.019,0a1.92,1.92,0,0,1-.312.028" fill="#263562"/><path d="M437.737-100.3a2.687,2.687,0,0,1-1.913-.786,2.685,2.685,0,0,1-.786-1.913v-18.275h-5.556a2.69,2.69,0,0,1-1.913-.786,2.687,2.687,0,0,1-.785-1.913,2.687,2.687,0,0,1,.785-1.913,2.69,2.69,0,0,1,1.913-.786h16.48a2.687,2.687,0,0,1,1.912.786,2.684,2.684,0,0,1,.786,1.913,2.68,2.68,0,0,1-.786,1.913,2.687,2.687,0,0,1-1.912.786h-5.527V-103a2.7,2.7,0,0,1-2.7,2.7" fill="#263562"/><path d="M454.943-100.3a2.7,2.7,0,0,1-2.7-2.7V-123.97a2.675,2.675,0,0,1,.8-1.9,2.677,2.677,0,0,1,1.9-.8,2.7,2.7,0,0,1,2.7,2.7V-103a2.689,2.689,0,0,1-.785,1.913,2.687,2.687,0,0,1-1.913.786" fill="#263562"/><path d="M463.987-100.3a2.7,2.7,0,0,1-2.7-2.7V-123.97a2.7,2.7,0,0,1,2.7-2.7h14.37a2.7,2.7,0,0,1,2.7,2.7,2.681,2.681,0,0,1-.787,1.913,2.684,2.684,0,0,1-1.912.786H466.685v5.334h9.807a2.677,2.677,0,0,1,1.9.8,2.673,2.673,0,0,1,.8,1.9,2.7,2.7,0,0,1-2.7,2.7h-9.807V-103a2.7,2.7,0,0,1-2.7,2.7" fill="#263562"/><path d="M487.373-100.3a2.7,2.7,0,0,1-2.7-2.7V-123.97a2.676,2.676,0,0,1,.8-1.9,2.676,2.676,0,0,1,1.9-.8,2.7,2.7,0,0,1,2.7,2.7V-103a2.69,2.69,0,0,1-.786,1.913,2.684,2.684,0,0,1-1.913.786" fill="#263562"/><path d="M506.207-99.854a13.514,13.514,0,0,1-5.385-1.1l-.007,0a14.086,14.086,0,0,1-4.326-2.929,13.377,13.377,0,0,1-2.942-4.341,13.006,13.006,0,0,1-1.076-5.267,13.575,13.575,0,0,1,1.07-5.284l.007-.016a13.6,13.6,0,0,1,2.971-4.307,13.916,13.916,0,0,1,4.4-2.933l.016-.007a13.953,13.953,0,0,1,5.336-1.067,13.259,13.259,0,0,1,8.175,2.751,2.7,2.7,0,0,1,1.033,1.778,2.708,2.708,0,0,1-.5,1.977l-.019.026a2.75,2.75,0,0,1-2.165,1.059,2.669,2.669,0,0,1-1.61-.537l-.007-.005a7.838,7.838,0,0,0-4.911-1.651,8.6,8.6,0,0,0-3.275.641,8.613,8.613,0,0,0-2.685,1.8,8.5,8.5,0,0,0-1.8,2.633,7.858,7.858,0,0,0-.638,3.144,7.963,7.963,0,0,0,.64,3.149,8.057,8.057,0,0,0,1.785,2.614l.014.014a8.3,8.3,0,0,0,5.9,2.47,8.44,8.44,0,0,0,2.846-.512,8.321,8.321,0,0,0,2.4-1.388,2.662,2.662,0,0,1,1.719-.632,2.716,2.716,0,0,1,2.058.953,2.666,2.666,0,0,1,.632,1.987,2.668,2.668,0,0,1-.961,1.818,13.65,13.65,0,0,1-3.97,2.3,13.364,13.364,0,0,1-4.723.868" fill="#263562"/><path d="M521.8-100.3a2.7,2.7,0,0,1-2.7-2.7V-123.97a2.676,2.676,0,0,1,.8-1.9,2.676,2.676,0,0,1,1.9-.8,2.7,2.7,0,0,1,2.7,2.7V-103a2.69,2.69,0,0,1-.786,1.913,2.684,2.684,0,0,1-1.913.786" fill="#263562"/><path d="M573.954-100.3H560.623a2.7,2.7,0,0,1-2.7-2.7V-123.97a2.7,2.7,0,0,1,2.7-2.7,2.691,2.691,0,0,1,1.913.786,2.684,2.684,0,0,1,.786,1.913v18.276h10.632a2.68,2.68,0,0,1,1.912.786,2.682,2.682,0,0,1,.786,1.912,2.686,2.686,0,0,1-.786,1.913,2.68,2.68,0,0,1-1.912.786" fill="#263562"/><path d="M397.665-100.3a2.7,2.7,0,0,1-2.7-2.7V-123.97a2.679,2.679,0,0,1,.8-1.9,2.681,2.681,0,0,1,1.9-.8,2.7,2.7,0,0,1,2.7,2.7V-103a2.685,2.685,0,0,1-.786,1.913,2.683,2.683,0,0,1-1.912.786" fill="#e2231a"/><path d="M538.232-106.742c2.21-1.073,5.006-.726,7.946-.448l-3.713-8.285Zm17.311,4.209c-9.245,3.912-17.345-3.6-21.633,4.7-1.3,2.881-2.14,3.389-3.715,3.389a3.325,3.325,0,0,1-3.325-3.325,3.315,3.315,0,0,1,.33-1.446h0l12.4-25.605a3.326,3.326,0,0,1,2.981-1.85,3.327,3.327,0,0,1,2.981,1.85Z" fill="#263562"/><path d="M375.241-106.742c2.21-1.073,5.006-.726,7.946-.448l-3.713-8.285Zm17.311,4.209c-9.245,3.912-17.345-3.6-21.632,4.7-1.3,2.881-2.14,3.389-3.715,3.389a3.326,3.326,0,0,1-3.326-3.325,3.315,3.315,0,0,1,.33-1.446h0l12.4-25.605a3.328,3.328,0,0,1,2.982-1.85,3.326,3.326,0,0,1,2.98,1.85Z" fill="#e2231a"/></g><text transform="translate(416 4225)" fill="#e2231a" font-size="12" font-family="Nunito-Black, Nunito" font-weight="800"><tspan x="0" y="0">GROUP</tspan></text></g></svg>