<svg xmlns="http://www.w3.org/2000/svg" width="206.333" height="40" viewBox="0 0 206.333 40"><g transform="translate(-29 -51)"><g transform="translate(29 51)"><path d="M421-101.1a2.646,2.646,0,0,1-2.563-2.119l0-.013a10.308,10.308,0,0,0-1.505-3.925l-.011-.015a4.105,4.105,0,0,0-1.629-1.424l-.035-.017a3.166,3.166,0,0,0-1.229-.345c-.159,0-.329.007-.508.014-.215.008-.439.016-.671.016a2.614,2.614,0,0,1-2.582-2.387,2.581,2.581,0,0,1,2.089-2.794,5.876,5.876,0,0,1,1.287-.128c.149,0,.3,0,.456.015a7.349,7.349,0,0,0,3.085-.77,2.645,2.645,0,0,0,1.352-2.66,5.062,5.062,0,0,0-.508-2.382,2.85,2.85,0,0,0-.953-.941,4.1,4.1,0,0,0-1.679-.465h-6.184v17.723a2.62,2.62,0,0,1-2.616,2.617,2.592,2.592,0,0,1-1.844-.774,2.592,2.592,0,0,1-.774-1.843v-20.339a2.621,2.621,0,0,1,2.617-2.617H415.4a8.325,8.325,0,0,1,2.028.273,8.3,8.3,0,0,1,3.874,2.136,7.9,7.9,0,0,1,1.8,2.765v0a10.709,10.709,0,0,1,.668,3.845,8.7,8.7,0,0,1-1.01,4.225,7.534,7.534,0,0,1-2.164,2.461c.176.2.348.415.517.639l.007.009a15.11,15.11,0,0,1,2.452,6.087l0,.012a2.667,2.667,0,0,1-.388,1.944,2.536,2.536,0,0,1-1.679,1.126l-.1.019h-.079l-.019,0a1.859,1.859,0,0,1-.3.027" transform="translate(-365.092 127.099)" fill="#fff"/><path d="M437.406-101.1a2.606,2.606,0,0,1-1.855-.762,2.6,2.6,0,0,1-.762-1.855v-17.722H429.4a2.608,2.608,0,0,1-1.855-.762,2.606,2.606,0,0,1-.761-1.855,2.606,2.606,0,0,1,.761-1.855,2.608,2.608,0,0,1,1.855-.762h15.981a2.606,2.606,0,0,1,1.854.762,2.6,2.6,0,0,1,.762,1.855,2.6,2.6,0,0,1-.762,1.855,2.606,2.606,0,0,1-1.854.762h-5.36v17.722a2.62,2.62,0,0,1-2.616,2.617" transform="translate(-365.783 127.099)" fill="#fff"/><path d="M454.861-101.1a2.62,2.62,0,0,1-2.616-2.617v-20.339a2.594,2.594,0,0,1,.773-1.843,2.6,2.6,0,0,1,1.843-.774,2.62,2.62,0,0,1,2.616,2.617v20.339a2.607,2.607,0,0,1-.761,1.855,2.606,2.606,0,0,1-1.855.762" transform="translate(-366.553 127.099)" fill="#fff"/><path d="M463.905-101.1a2.62,2.62,0,0,1-2.616-2.617v-20.339a2.62,2.62,0,0,1,2.616-2.617H477.84a2.621,2.621,0,0,1,2.617,2.617,2.6,2.6,0,0,1-.763,1.855,2.6,2.6,0,0,1-1.854.762H466.522v5.173h9.51a2.6,2.6,0,0,1,1.843.774,2.592,2.592,0,0,1,.774,1.843,2.62,2.62,0,0,1-2.617,2.616h-9.51v7.316a2.62,2.62,0,0,1-2.616,2.617" transform="translate(-366.827 127.099)" fill="#fff"/><path d="M487.291-101.1a2.62,2.62,0,0,1-2.616-2.617v-20.339a2.6,2.6,0,0,1,.774-1.843,2.6,2.6,0,0,1,1.843-.774,2.62,2.62,0,0,1,2.617,2.617v20.339a2.608,2.608,0,0,1-.762,1.855,2.6,2.6,0,0,1-1.855.762" transform="translate(-367.535 127.099)" fill="#fff"/><path d="M505.791-100.679a13.1,13.1,0,0,1-5.222-1.071l-.007,0a13.659,13.659,0,0,1-4.2-2.84,12.972,12.972,0,0,1-2.853-4.21,12.613,12.613,0,0,1-1.043-5.108,13.166,13.166,0,0,1,1.038-5.124l.007-.016a13.188,13.188,0,0,1,2.881-4.177,13.5,13.5,0,0,1,4.264-2.844l.016-.007a13.53,13.53,0,0,1,5.174-1.035,12.858,12.858,0,0,1,7.928,2.668,2.623,2.623,0,0,1,1,1.724,2.626,2.626,0,0,1-.481,1.917l-.018.025a2.667,2.667,0,0,1-2.1,1.027,2.587,2.587,0,0,1-1.561-.521l-.007,0a7.6,7.6,0,0,0-4.762-1.6,8.345,8.345,0,0,0-3.176.622,8.353,8.353,0,0,0-2.6,1.744,8.238,8.238,0,0,0-1.747,2.553,7.621,7.621,0,0,0-.619,3.049,7.724,7.724,0,0,0,.621,3.054,7.814,7.814,0,0,0,1.731,2.535l.013.014a8.05,8.05,0,0,0,5.72,2.4,8.185,8.185,0,0,0,2.76-.5,8.072,8.072,0,0,0,2.326-1.346,2.581,2.581,0,0,1,1.667-.613,2.634,2.634,0,0,1,2,.924,2.586,2.586,0,0,1,.613,1.927,2.587,2.587,0,0,1-.932,1.763,13.239,13.239,0,0,1-3.85,2.233,12.96,12.96,0,0,1-4.58.842" transform="translate(-367.771 127.112)" fill="#fff"/><path d="M521.722-101.1a2.62,2.62,0,0,1-2.616-2.617v-20.339a2.6,2.6,0,0,1,.774-1.843,2.6,2.6,0,0,1,1.842-.774,2.621,2.621,0,0,1,2.617,2.617v20.339a2.608,2.608,0,0,1-.762,1.855,2.6,2.6,0,0,1-1.855.762" transform="translate(-368.577 127.099)" fill="#fff"/><path d="M573.469-101.1H560.541a2.62,2.62,0,0,1-2.616-2.617v-20.339a2.62,2.62,0,0,1,2.616-2.617,2.61,2.61,0,0,1,1.855.762,2.6,2.6,0,0,1,.762,1.855v17.723h10.31a2.6,2.6,0,0,1,1.854.762,2.6,2.6,0,0,1,.762,1.854,2.6,2.6,0,0,1-.762,1.855,2.6,2.6,0,0,1-1.854.762" transform="translate(-369.752 127.099)" fill="#fff"/><path d="M397.583-101.1a2.621,2.621,0,0,1-2.617-2.617v-20.339a2.6,2.6,0,0,1,.773-1.843,2.6,2.6,0,0,1,1.844-.774,2.62,2.62,0,0,1,2.616,2.617v20.339a2.6,2.6,0,0,1-.762,1.855,2.6,2.6,0,0,1-1.854.762" transform="translate(-364.82 127.099)" fill="#e2231a"/><path d="M537.888-107.345c2.143-1.041,4.854-.7,7.706-.434l-3.6-8.034Zm16.787,4.082c-8.965,3.794-16.82-3.488-20.978,4.56-1.263,2.794-2.075,3.286-3.6,3.286a3.225,3.225,0,0,1-3.224-3.224,3.215,3.215,0,0,1,.32-1.4h0l12.027-24.83a3.225,3.225,0,0,1,2.891-1.794A3.227,3.227,0,0,1,545-124.875Z" transform="translate(-368.812 127.099)" fill="#fff"/><path d="M374.9-107.345c2.143-1.041,4.854-.7,7.706-.434l-3.6-8.034Zm16.787,4.082c-8.965,3.794-16.82-3.488-20.977,4.56-1.264,2.794-2.075,3.286-3.6,3.286a3.225,3.225,0,0,1-3.225-3.224,3.214,3.214,0,0,1,.32-1.4h0l12.027-24.83a3.227,3.227,0,0,1,2.892-1.794,3.225,3.225,0,0,1,2.89,1.794Z" transform="translate(-363.879 127.099)" fill="#e2231a"/></g><text transform="translate(194 88)" fill="#fff" font-size="9" font-family="Nunito-Black, Nunito" font-weight="800"><tspan x="0" y="0">GROUP</tspan></text></g></svg>